<?xml version="1.0" standalone="no"?>
<!DOCTYPE svg PUBLIC "-//W3C//DTD SVG 20010904//EN"
 "http://www.w3.org/TR/2001/REC-SVG-20010904/DTD/svg10.dtd">
<svg version="1.0" xmlns="http://www.w3.org/2000/svg"
 width="1280.000000pt" height="972.000000pt" viewBox="0 0 1280.000000 972.000000"
 preserveAspectRatio="xMidYMid meet">

<g transform="translate(0.000000,972.000000) scale(0.100000,-0.100000)"
fill="#f97316" stroke="none">
<path d="M7245 9687 c-15 -36 -29 -193 -40 -437 -11 -258 -84 -920 -120 -1091
-9 -41 -40 -146 -69 -234 -29 -88 -59 -183 -65 -210 l-12 -51 -178 25 c-98 13
-186 21 -194 18 -14 -5 -12 -17 14 -94 17 -48 80 -234 140 -412 61 -178 120
-342 132 -365 l22 -42 228 346 c210 318 300 459 294 461 -1 0 -20 2 -42 4 -82
7 -290 38 -297 44 -4 3 4 38 18 76 51 139 81 300 154 830 100 734 112 854 95
964 -16 96 -41 188 -55 196 -6 4 -17 -9 -25 -28z m-576 -2052 c156 -53 271
-70 468 -70 101 0 183 -3 183 -6 0 -3 -12 -16 -26 -30 -111 -102 -305 -409
-379 -598 l-29 -74 -22 109 c-51 259 -119 442 -235 631 -21 35 -37 63 -35 63
1 0 35 -11 75 -25z"/>
<path d="M10212 9333 c-25 -36 -84 -153 -188 -377 -135 -288 -421 -818 -525
-973 -28 -41 -92 -122 -142 -180 -92 -105 -163 -195 -170 -216 -2 -6 -68 27
-153 75 -83 48 -162 90 -176 93 l-26 7 -6 -114 c-3 -62 -13 -228 -21 -368 -18
-305 -23 -466 -13 -475 4 -4 44 20 90 52 46 33 184 129 308 213 124 85 258
178 297 207 40 29 77 53 83 53 21 0 9 19 -21 34 -17 8 -86 47 -155 87 l-124
71 59 64 c85 91 202 272 419 649 439 764 463 812 492 958 22 111 23 158 4 164
-7 2 -21 -9 -32 -24z m-1155 -1786 c109 -73 241 -138 357 -175 l88 -28 -73
-36 c-177 -88 -351 -212 -508 -363 -57 -55 -101 -91 -97 -80 17 44 46 207 57
325 15 160 1 409 -28 504 -3 12 17 0 56 -34 33 -30 100 -80 148 -113z"/>
<path d="M2690 7920 c-13 -8 -13 -11 1 -25 21 -21 157 -79 379 -160 327 -119
918 -376 1065 -462 39 -23 123 -80 188 -127 65 -48 143 -100 172 -117 l53 -30
-74 -154 c-41 -85 -74 -166 -74 -180 l0 -26 223 6 c411 12 692 24 714 31 20 6
14 15 -76 123 -53 64 -167 201 -252 305 -84 105 -175 213 -201 242 -27 28 -48
57 -48 63 0 18 -20 13 -26 -6 -13 -41 -138 -303 -144 -303 -4 0 -14 8 -21 17
-27 32 -191 133 -337 207 -231 116 -966 458 -1172 543 -113 47 -330 78 -370
53z m2257 -862 c78 -98 205 -229 303 -312 l45 -38 -35 7 c-75 13 -299 25 -380
20 -169 -11 -349 -41 -425 -71 -16 -6 -14 0 12 32 117 148 217 360 268 571
l17 72 57 -89 c31 -49 93 -136 138 -192z"/>
<path d="M3356 6748 c-7 -18 -23 -100 -35 -183 -12 -82 -24 -159 -26 -170 -4
-19 -12 -20 -312 -20 -302 1 -312 1 -493 33 -326 58 -639 122 -886 183 -266
65 -356 79 -369 59 -12 -19 37 -57 142 -112 102 -54 184 -73 583 -137 800
-128 1024 -156 1200 -149 l116 5 -23 -156 c-13 -86 -27 -165 -31 -176 -13 -29
-4 -46 16 -35 14 7 807 264 879 285 22 6 22 7 7 31 -9 13 -99 86 -201 161
-102 76 -268 200 -369 276 l-185 138 -13 -33z m133 -128 c118 -133 368 -320
513 -385 37 -17 68 -33 68 -36 0 -3 -30 -9 -67 -13 -187 -19 -448 -95 -634
-184 -55 -26 -99 -47 -99 -47 0 0 15 43 34 95 64 179 104 434 94 603 l-5 80
19 -24 c11 -13 45 -53 77 -89z"/>
<path d="M12670 6251 c-47 -16 -164 -63 -260 -104 -187 -80 -671 -258 -885
-326 -197 -63 -266 -79 -451 -101 -149 -19 -200 -27 -253 -41 -10 -3 -30 45
-70 169 -32 94 -62 177 -68 183 -9 9 -93 -68 -332 -302 -177 -172 -321 -316
-321 -319 0 -3 -9 -16 -20 -28 l-20 -22 22 -4 c36 -7 764 -105 851 -114 80 -9
93 -7 78 12 -11 13 -101 294 -101 313 0 8 3 12 8 9 16 -10 183 16 312 49 191
48 1264 394 1390 448 82 36 257 177 245 198 -10 15 -34 11 -125 -20z m-2007
-338 c12 -155 87 -388 172 -538 25 -43 44 -80 42 -81 -2 -2 -57 10 -123 26
-182 44 -319 61 -506 62 -92 0 -171 -3 -177 -7 -6 -3 -11 -3 -10 2 0 4 39 35
87 68 158 109 422 392 480 513 9 17 19 32 22 32 4 0 10 -35 13 -77z"/>
<path d="M1916 4795 c-2 -7 -1 -16 4 -21 8 -9 80 -285 80 -308 0 -7 -28 -11
-78 -12 -138 -3 -271 -29 -737 -145 -767 -192 -929 -239 -1035 -304 -83 -51
-152 -113 -143 -128 12 -19 135 14 425 117 148 52 515 162 728 220 320 85 404
101 620 111 69 4 151 11 184 16 32 6 60 8 62 6 2 -2 22 -73 43 -158 43 -169
56 -209 69 -209 4 0 39 28 77 62 39 34 178 154 309 267 251 215 345 303 330
308 -18 5 -612 124 -744 149 -74 13 -147 29 -162 33 -19 6 -28 5 -32 -4z m304
-126 c155 -40 300 -61 447 -62 67 -1 123 -4 123 -7 -1 -3 -26 -20 -58 -38
-160 -91 -399 -304 -508 -452 -54 -73 -59 -78 -61 -52 -27 291 -79 477 -190
683 -2 4 27 -4 64 -18 37 -13 120 -38 183 -54z"/>
<path d="M10200 4791 c-30 -10 -214 -69 -409 -130 -194 -62 -373 -121 -397
-132 l-44 -21 208 -143 c114 -79 288 -199 387 -266 99 -67 183 -127 187 -133
10 -15 14 2 33 124 8 58 20 133 26 167 l11 61 51 -24 c99 -45 308 -93 627
-144 528 -85 630 -101 828 -129 239 -35 293 -37 407 -17 99 18 145 34 145 51
0 26 -78 39 -365 60 -249 18 -482 44 -810 90 -324 45 -400 62 -610 138 -99 35
-197 68 -218 71 -35 7 -38 9 -33 34 34 161 55 363 39 361 -5 0 -33 -8 -63 -18z
m10 -64 c-59 -134 -106 -415 -98 -592 2 -52 4 -95 3 -95 0 0 -25 23 -55 51
-144 134 -393 297 -564 370 l-78 34 48 8 c278 46 500 119 674 221 41 24 78 44
82 45 4 1 -2 -19 -12 -42z"/>
<path d="M4161 3264 c-222 -7 -406 -15 -409 -18 -2 -3 0 -11 5 -18 13 -16 153
-289 153 -299 0 -3 -19 -9 -42 -11 -24 -3 -90 -23 -148 -44 -168 -61 -1249
-613 -1412 -721 -68 -44 -177 -154 -204 -205 -38 -71 49 -33 356 159 255 159
657 385 895 503 123 61 199 91 330 130 94 28 194 60 223 71 29 12 54 20 55 18
2 -2 36 -69 76 -149 71 -140 96 -180 112 -180 6 0 130 166 417 563 57 78 112
159 123 180 l19 37 -72 -1 c-40 -1 -255 -8 -477 -15z m419 -85 c-162 -161
-333 -415 -396 -583 -20 -55 -16 -60 -59 74 -53 166 -155 351 -261 477 -24 28
-44 53 -44 56 0 2 24 0 53 -5 76 -13 408 -12 507 1 96 13 232 40 239 47 2 2
10 4 18 4 8 0 -18 -32 -57 -71z"/>
<path d="M8440 3190 c15 -30 87 -182 159 -338 129 -278 218 -462 229 -472 2
-3 7 1 9 8 4 9 175 222 211 262 2 3 12 -6 21 -20 87 -132 308 -327 1017 -897
323 -260 391 -302 557 -344 55 -13 65 -8 47 25 -15 28 -96 90 -315 240 -256
174 -714 526 -884 679 -38 34 -111 112 -161 172 -51 61 -118 137 -150 170
l-58 60 113 138 c62 76 115 147 118 157 4 16 -6 21 -72 35 -75 16 -672 150
-721 161 -14 4 -53 9 -87 13 l-61 7 28 -56z m119 -25 c170 -70 434 -123 636
-128 63 -1 115 -3 115 -3 0 -1 -17 -13 -38 -27 -54 -35 -203 -187 -266 -271
-58 -77 -156 -242 -156 -263 0 -38 -19 0 -54 107 -49 155 -153 365 -250 509
-43 62 -71 111 -64 108 7 -3 42 -17 77 -32z"/>
<path d="M6655 2896 c-21 -50 -85 -197 -142 -326 -58 -129 -122 -277 -144
-330 -22 -52 -44 -103 -49 -112 -5 -9 -6 -19 -2 -21 4 -2 52 0 107 4 55 4 134
7 177 8 l76 1 -18 -47 c-37 -98 -44 -213 -37 -632 7 -411 20 -797 37 -1033 7
-102 16 -157 35 -214 34 -102 75 -184 91 -184 32 0 31 54 -11 415 -42 362 -82
1024 -70 1165 4 41 18 147 32 235 15 97 24 185 21 226 l-3 66 188 7 c194 8
217 11 217 28 0 9 -117 228 -342 640 -38 70 -82 143 -97 162 l-27 34 -39 -92z
m76 -67 c68 -195 198 -422 330 -578 52 -61 59 -73 38 -68 -156 43 -522 28
-698 -28 -19 -6 -18 -1 13 48 60 93 162 307 201 422 39 115 75 246 75 279 0
31 10 12 41 -75z"/>
</g>
</svg>
