<?xml version="1.0" standalone="no"?>
<!DOCTYPE svg PUBLIC "-//W3C//DTD SVG 20010904//EN"
 "http://www.w3.org/TR/2001/REC-SVG-20010904/DTD/svg10.dtd">
<svg version="1.0" xmlns="http://www.w3.org/2000/svg"
 width="470.000000pt" height="174.000000pt" viewBox="0 0 470.000000 174.000000"
 preserveAspectRatio="xMidYMid meet">

<g transform="translate(0.000000,174.000000) scale(0.100000,-0.100000)"
fill="#f97316" stroke="none">
<path fill="#f97316" d="M108 1717 c-20 -12 -46 -34 -58 -49 -51 -66 -50 -45 -50 -813 0 -788
-3 -755 62 -823 l32 -32 834 0 c555 0 840 3 853 10 10 6 32 34 49 63 l30 52 0
731 0 731 -23 44 c-13 24 -43 59 -66 77 l-43 32 -791 0 -792 0 -37 -23z m878
-715 c160 -277 293 -505 296 -507 2 -3 2 225 0 505 l-5 510 127 0 126 0 0
-680 0 -680 -179 0 -179 0 -287 499 c-158 275 -292 507 -299 516 -9 13 -11
-95 -8 -499 l4 -516 -126 0 -126 0 0 680 0 680 182 -2 182 -3 292 -503z"/>
<path d="M4056 1171 c-25 -28 -17 -73 15 -88 47 -23 98 8 99 60 0 4 -9 16 -20
27 -25 25 -72 26 -94 1z"/>
<path d="M2615 1016 c-17 -7 -36 -20 -44 -29 -16 -20 -31 -13 -31 14 0 16 -7
19 -50 19 l-50 0 0 -215 0 -215 60 0 60 0 0 123 c0 180 15 217 89 217 53 0 61
-25 61 -192 l0 -148 60 0 60 0 0 133 c0 167 13 200 77 205 66 5 73 -13 73
-190 l0 -148 60 0 60 0 0 160 c0 195 -11 232 -74 261 -67 31 -135 22 -183 -23
l-23 -21 -22 21 c-46 42 -124 54 -183 28z"/>
<path d="M3328 1020 c-99 -30 -154 -149 -128 -277 25 -119 133 -180 277 -156
79 14 93 25 93 74 0 44 0 44 -55 24 -22 -8 -61 -14 -87 -15 -38 0 -54 5 -78
28 -16 15 -31 38 -32 52 l-3 25 138 3 137 3 0 52 c0 57 -25 121 -58 150 -44
40 -139 57 -204 37z m132 -108 c11 -13 20 -33 20 -43 0 -17 -9 -19 -80 -19
-72 0 -80 2 -80 19 0 34 12 53 42 66 39 16 74 8 98 -23z"/>
<path d="M3880 1019 c-14 -6 -39 -24 -57 -41 l-32 -31 -6 37 c-7 35 -9 36 -51
36 l-44 0 0 -215 0 -215 55 0 55 0 1 113 c0 61 5 128 12 147 14 40 63 70 115
70 30 0 32 2 34 40 0 22 1 46 2 53 1 15 -51 19 -84 6z"/>
<path d="M4377 1019 c-21 -5 -47 -14 -58 -19 -19 -11 -19 -11 1 -50 l20 -39
35 14 c42 18 119 19 133 2 6 -6 13 -24 17 -38 6 -26 6 -26 -63 -32 -98 -8
-149 -25 -179 -61 -22 -26 -25 -37 -21 -88 3 -43 10 -64 28 -83 52 -55 154
-57 214 -4 l34 29 10 -30 c10 -27 15 -30 52 -30 l41 0 -3 179 -3 180 -29 30
c-46 48 -132 63 -229 40z m149 -266 c-9 -48 -47 -83 -90 -83 -39 0 -56 15 -56
50 0 45 36 67 114 69 l38 1 -6 -37z"/>
<path d="M1922 853 c4 -181 13 -214 62 -246 55 -37 162 -30 201 13 24 26 32
25 39 -5 6 -22 12 -25 51 -25 l45 0 0 215 0 215 -59 0 -60 0 -3 -151 c-3 -145
-4 -152 -27 -170 -14 -11 -39 -19 -62 -19 -60 0 -69 27 -69 200 l0 140 -61 0
-61 0 4 -167z"/>
<path d="M4040 805 l0 -215 60 0 60 0 0 215 0 215 -60 0 -60 0 0 -215z"/>
</g>
</svg>
